<?xml version="1.0" standalone="no"?>
<!DOCTYPE svg PUBLIC "-//W3C//DTD SVG 20010904//EN"
 "http://www.w3.org/TR/2001/REC-SVG-20010904/DTD/svg10.dtd">
<svg version="1.0" xmlns="http://www.w3.org/2000/svg"
 width="190.000000pt" height="30.000000pt" viewBox="0 0 190.000000 30.000000"
 preserveAspectRatio="xMidYMid meet">
<metadata>
Created by potrace 1.10, written by Peter Selinger 2001-2011
</metadata>
<g transform="translate(0.000000,30.000000) scale(0.100000,-0.100000)"
fill="#3b5f9a" stroke="none">
<path d="M75 293 c-57 -5 -71 -14 -60 -40 7 -17 8 -17 15 2 13 33 43 -49 44
-121 1 -61 1 -61 23 -46 14 8 33 12 47 8 14 -3 28 -2 31 4 3 6 -1 7 -9 4 -12
-5 -16 1 -16 24 0 34 9 62 19 62 11 0 31 -47 31 -73 0 -13 -6 -29 -12 -36 -7
-8 -1 -6 13 3 17 11 36 15 52 11 14 -4 28 -2 31 3 3 5 -2 9 -12 8 -14 -1 -17
7 -16 50 1 28 10 70 21 95 l20 44 -49 -4 c-41 -2 -46 -5 -33 -15 12 -8 14 -20
10 -39 -10 -39 -21 -33 -36 18 -7 25 -17 45 -21 45 -4 0 -5 -6 -2 -13 2 -7 -5
-35 -18 -63 l-22 -49 -8 40 c-6 25 -5 49 1 63 6 12 10 21 8 20 -1 -1 -24 -3
-52 -5z m155 -118 c0 -8 -4 -15 -9 -15 -5 0 -11 7 -15 15 -3 9 0 15 9 15 8 0
15 -7 15 -15z m-108 -37 c-7 -7 -12 -8 -13 -2 0 5 -2 18 -4 28 -3 18 -2 18 13
3 13 -13 14 -20 4 -29z"/>
<path d="M697 263 c-9 -56 -31 -70 -26 -17 4 39 4 39 -31 39 -27 0 -35 -5 -38
-20 -3 -17 -1 -17 7 -5 10 13 12 13 21 0 13 -21 24 -96 16 -116 -6 -15 -4 -15
10 -3 10 8 27 13 38 12 12 -1 15 0 9 3 -15 7 -17 50 -3 59 13 8 31 -40 23 -62
-5 -12 -3 -14 8 -7 8 4 25 8 39 7 17 -1 19 0 6 4 -16 4 -18 11 -12 51 3 25 11
51 16 56 16 16 12 21 -19 21 -22 0 -27 -3 -19 -12 6 -8 6 -18 -1 -30 -10 -19
-14 -14 -33 47 -3 8 -8 -4 -11 -27z"/>
<path d="M1215 290 c-3 -5 -17 -10 -30 -10 -29 0 -42 -17 -25 -33 10 -9 11 -9
6 1 -4 6 -3 12 3 12 15 0 41 -54 41 -85 0 -22 4 -25 33 -25 26 1 29 2 15 11
-26 15 -22 40 13 82 24 29 29 41 20 50 -8 8 -11 6 -11 -7 0 -13 -5 -17 -20
-13 -16 4 -20 0 -20 -19 0 -13 -4 -24 -9 -24 -13 0 -20 35 -9 54 10 17 3 23
-7 6z"/>
<path d="M1255 290 c3 -5 8 -10 11 -10 2 0 4 5 4 10 0 6 -5 10 -11 10 -5 0 -7
-4 -4 -10z"/>
<path d="M805 282 c-11 -11 -4 -21 10 -16 12 5 15 -4 15 -48 0 -30 -6 -60 -12
-67 -11 -10 -8 -10 15 -2 37 14 44 14 29 -1 -17 -17 -15 -28 4 -21 14 5 15 1
9 -28 -4 -19 -16 -49 -27 -68 -14 -25 -15 -31 -4 -22 9 7 25 11 36 8 17 -4 19
-1 14 18 -3 12 -1 26 5 29 6 4 13 -5 17 -21 9 -45 12 -50 13 -23 1 14 5 32 11
40 7 12 10 12 16 -4 4 -11 1 -28 -6 -40 -12 -19 -12 -20 3 -8 9 8 25 11 37 7
19 -6 21 -5 11 13 -6 12 -11 41 -11 65 0 40 -3 45 -25 49 -22 5 -25 2 -25 -23
0 -16 -4 -29 -10 -29 -5 0 -10 7 -10 15 0 8 -13 27 -30 42 -24 21 -30 35 -30
65 0 22 4 47 9 56 8 14 4 17 -25 18 -19 0 -36 -2 -39 -4z"/>
<path d="M895 282 c-11 -11 -4 -21 11 -15 14 5 15 -3 12 -56 -3 -56 -1 -62 15
-57 10 2 32 0 49 -5 39 -11 46 -5 25 19 -19 21 -23 57 -6 46 7 -4 10 -1 7 7
-3 8 -12 15 -21 17 -20 4 -23 -28 -6 -60 9 -17 8 -19 -8 -16 -24 4 -32 97 -10
113 11 8 6 11 -24 11 -21 1 -41 -1 -44 -4z"/>
<path d="M1025 282 c-11 -11 -4 -21 10 -16 12 5 15 -4 15 -48 0 -30 -6 -60
-12 -67 -11 -10 -8 -10 13 -3 31 12 79 4 86 -14 2 -7 12 -10 20 -7 13 5 15 -3
11 -60 -3 -57 -2 -64 12 -58 8 5 22 6 30 3 12 -4 13 -2 3 9 -14 14 -17 66 -7
93 3 9 13 16 21 16 9 0 13 -6 9 -15 -3 -8 -1 -15 4 -15 18 0 10 -22 -9 -27
-21 -5 -19 -25 7 -56 15 -16 16 -16 34 2 10 11 18 25 18 31 0 6 4 9 9 6 5 -4
11 -1 13 5 2 5 11 7 20 4 14 -6 12 -11 -14 -34 l-30 -27 42 4 c30 3 39 7 31
15 -18 18 -12 28 10 17 11 -7 18 -17 16 -24 -3 -8 5 -11 28 -8 l32 4 -19 36
c-21 42 -23 65 -6 95 10 20 10 21 -5 8 -11 -9 -30 -12 -52 -8 -37 6 -55 -7
-36 -26 8 -8 11 -8 11 1 0 7 5 12 11 12 7 0 8 -7 4 -17 -4 -10 -8 -24 -8 -31
0 -7 -8 -10 -19 -6 -10 3 -23 2 -30 -3 -7 -4 -16 -8 -20 -9 -5 -1 -11 -2 -15
-3 -5 -1 -1 -6 7 -11 13 -8 13 -10 -2 -10 -27 0 -30 18 -8 40 38 38 20 58 -55
62 -51 3 -62 6 -72 27 -16 29 -17 55 -2 45 7 -4 10 -1 7 7 -3 8 -12 15 -21 17
-20 4 -23 -28 -6 -60 9 -17 8 -19 -8 -16 -24 4 -32 97 -10 113 11 8 6 11 -24
11 -21 1 -41 -1 -44 -4z m365 -218 c0 -23 -2 -24 -22 -13 -14 8 -18 14 -10 17
6 2 12 10 12 18 0 9 5 12 10 9 6 -3 10 -17 10 -31z"/>
<path d="M519 215 c-12 -13 -21 -14 -43 -5 -40 15 -41 14 -38 -35 2 -26 0 -45
-6 -45 -12 0 -22 24 -22 55 0 19 -7 24 -40 30 -47 8 -60 2 -60 -28 0 -18 2
-19 10 -7 7 12 12 12 21 3 10 -10 9 -26 -5 -75 -9 -35 -25 -74 -33 -88 -15
-23 -15 -24 0 -11 9 7 31 12 49 9 l33 -3 -3 50 c-5 63 14 51 34 -22 7 -26 13
-39 13 -27 1 31 21 84 32 84 12 0 11 -57 -1 -81 -10 -17 -9 -18 15 -7 19 8 31
8 52 -1 18 -8 29 -9 37 -1 7 7 6 10 -3 10 -32 0 -55 144 -31 191 13 23 9 24
-11 4z m-131 -51 c2 -10 13 -29 25 -41 12 -13 15 -23 8 -23 -6 0 -14 7 -17 15
-4 10 -11 12 -23 6 -15 -8 -17 -4 -16 30 0 39 17 49 23 13z m103 14 c1 -7 2
-29 3 -49 1 -35 1 -36 -21 -20 -14 11 -18 20 -12 27 5 7 9 16 8 20 -3 19 2 34
11 34 6 0 11 -6 11 -12z m14 -118 c3 -5 1 -10 -4 -10 -6 0 -11 5 -11 10 0 6 2
10 4 10 3 0 8 -4 11 -10z"/>
<path d="M1756 135 c-22 -20 -25 -29 -16 -39 8 -11 8 -15 -2 -19 -9 -4 -8 -6
3 -6 20 -1 55 -39 45 -49 -4 -4 -13 1 -20 11 -16 21 -32 22 -40 1 -9 -22 -8
-24 8 -18 8 3 24 1 35 -5 16 -9 25 -7 48 13 22 19 25 26 15 38 -6 8 -8 19 -4
23 4 5 2 5 -4 2 -14 -8 -62 28 -52 39 5 4 16 0 26 -9 14 -13 21 -14 30 -5 14
14 16 32 3 23 -5 -3 -16 2 -24 10 -20 19 -19 19 -51 -10z"/>
<path d="M1052 134 c-52 -36 -51 -81 3 -112 l33 -20 21 22 c36 38 25 91 -25
119 -6 3 -20 -1 -32 -9z m58 -75 c0 -28 -14 -30 -45 -5 -23 19 -27 27 -21 51
l7 28 30 -29 c16 -15 29 -36 29 -45z"/>
<path d="M1444 141 c-10 -10 -3 -20 12 -14 14 5 15 -3 12 -54 l-3 -61 37 0
c21 -1 42 -4 48 -7 14 -9 13 11 -2 35 -11 17 -10 22 1 29 16 10 6 31 -15 31
-17 0 -19 -33 -3 -62 9 -17 8 -19 -8 -16 -24 4 -32 97 -10 113 11 8 5 10 -25
10 -21 0 -41 -2 -44 -4z"/>
<path d="M1574 141 c-10 -10 -3 -20 11 -15 12 5 15 -4 15 -48 0 -30 -4 -58
-10 -64 -6 -6 8 -7 38 -5 26 3 39 6 30 9 -18 4 -21 11 -21 57 0 48 3 55 23 55
24 0 25 -8 4 -31 -17 -19 -12 -39 10 -39 8 0 12 9 9 23 -3 14 2 29 11 36 9 8
16 16 16 20 0 7 -129 9 -136 2z"/>
<path d="M1665 40 c-3 -6 -1 -9 7 -8 7 2 12 -3 10 -10 -1 -8 3 -12 10 -10 7 3
13 11 13 19 0 17 -31 24 -40 9z"/>
</g>
</svg>
